# xmcd
#
# Track frame offsets:
#	150
#	21647
#	32502
#	51157
#	63240
#	77707
#	91085
#	102590
#	110765
#	126460
#	141415
#	155022
#	166672
#	181502
#	192947
#	207837
#	223870
#	237927
#	253532
#	268860
#
# Disc length: 3766 seconds
#
# Revision: 0
# Processed by: cddbd v1.5.2PL0 Copyright (c) Steve Scherf et al.
# Submitted via: EasyCDDAExtractor 12.0.1.1
#
DISCID=230eb414
DTITLE=Various Artist - Green, Green Grass of Home Country Songs of Heart and H
DTITLE=ome
DYEAR=2007
DGENRE=Country
TTITLE0=John Denver - Back Home Again
TTITLE1=Porter Wagoner - Green, Green Grass of Home
TTITLE2=Crystal Gayle - Georgia Ob Ny Mind
TTITLE3=Glen Campbell - Galveston
TTITLE4=Charley Pride - Burgers And Fries
TTITLE5=Mac Davis - Jennifer Johnson
TTITLE6=Roy Clark - I Never Picked Cotton
TTITLE7=The Statler Brothers - This Ole House
TTITLE8=Willie Nelson - Homeward Bound
TTITLE9=The Oak Ridge Boys - Ozark Mountain Jubilee
TTITLE10=Loretta Lynn - Cool Miner's Daughter
TTITLE11=Johnny Cash - In Them Old Cotton Fields
TTITLE12=Elvis Presley - Kentucky Rain
TTITLE13=Roy Orbison - Blue Bayou
TTITLE14=Vince Gill - Oh, Carolina
TTITLE15=Vicki Lawrence - The Night The Lights Went Out
TTITLE16=Merle Haggard - My Favorite Memory
TTITLE17=Earl Thomas Conley - Smokey Mountain Memories
TTITLE18=Dolly Parton - Tenessee Homesick Blues
TTITLE19=Alabama - Tenessee River
EXTD=
EXTT0=
EXTT1=
EXTT2=
EXTT3=
EXTT4=
EXTT5=
EXTT6=
EXTT7=
EXTT8=
EXTT9=
EXTT10=
EXTT11=
EXTT12=
EXTT13=
EXTT14=
EXTT15=
EXTT16=
EXTT17=
EXTT18=
EXTT19=
PLAYORDER=
